<?xml version="1.0" standalone="no"?>
<!DOCTYPE svg PUBLIC "-//W3C//DTD SVG 20010904//EN"
 "http://www.w3.org/TR/2001/REC-SVG-20010904/DTD/svg10.dtd">
<svg version="1.0" xmlns="http://www.w3.org/2000/svg"
 width="500.000000pt" height="500.000000pt" viewBox="0 0 500.000000 500.000000"
 preserveAspectRatio="xMidYMid meet">

<g transform="translate(0.000000,500.000000) scale(0.100000,-0.100000)"
fill="#000000" stroke="none">
<path d="M0 3806 l0 -1193 43 -8 c23 -5 44 -9 47 -9 3 -1 25 -11 50 -23 43
-21 150 -46 159 -37 2 2 15 83 27 180 38 292 97 500 209 729 289 597 859 1039
1508 1170 67 13 165 30 217 36 125 16 470 16 592 0 358 -46 691 -167 976 -357
328 -219 548 -484 698 -840 44 -105 114 -320 114 -350 0 -12 -66 -14 -481 -12
l-480 3 -26 65 c-55 136 -117 234 -212 334 -204 213 -488 316 -867 316 -344 0
-619 -88 -860 -276 -260 -202 -438 -530 -470 -866 l-7 -68 64 0 c35 0 102 7
149 15 47 8 86 15 88 15 1 0 2 5 2 10 0 6 -8 10 -17 10 -9 0 -14 2 -12 5 3 2
56 7 119 10 153 8 148 7 143 22 -4 10 10 13 53 13 l59 1 -30 25 -30 26 28 -6
c20 -5 29 -2 34 10 3 9 15 26 27 39 19 20 28 22 107 17 82 -4 87 -3 94 17 3
11 3 30 0 41 -5 16 -2 20 19 20 24 0 26 4 26 40 0 37 2 40 19 30 11 -5 42 -8
70 -5 27 3 53 0 56 -5 11 -17 25 -11 25 12 0 20 1 20 18 5 21 -19 32 -13 32
16 0 20 1 20 24 -2 l23 -22 21 33 21 32 12 -26 c13 -29 43 -42 58 -24 5 6 13
26 18 45 9 35 33 55 33 28 0 -8 7 -20 15 -27 12 -10 19 -7 39 15 22 24 27 25
32 11 4 -9 4 -32 1 -51 -6 -34 5 -55 18 -35 9 15 27 1 21 -16 -7 -19 0 -18 35
8 24 18 32 20 38 9 5 -8 18 -12 29 -9 21 6 45 -13 54 -42 3 -10 16 -14 46 -11
32 2 42 -1 42 -12 0 -20 20 -26 49 -15 14 5 27 5 30 0 3 -5 27 -12 54 -16 36
-6 47 -11 47 -25 0 -16 6 -17 58 -10 61 8 93 -3 60 -22 -22 -13 -23 -29 -2
-29 11 0 15 -6 11 -20 -3 -12 0 -20 7 -20 7 0 23 -9 36 -20 13 -11 28 -20 34
-21 6 0 52 -5 101 -10 50 -5 179 -12 288 -15 156 -5 200 -9 204 -20 6 -17 25
-18 40 -3 14 14 712 19 720 7 5 -10 178 -10 250 -2 l53 7 0 1173 0 1174 -2500
0 -2500 0 0 -1194z"/>
<path d="M205 2489 c-38 -4 -90 -15 -114 -24 -24 -8 -54 -15 -67 -15 l-24 0 0
-1225 0 -1225 2500 0 2500 0 -2 1138 -3 1137 -45 6 c-25 4 -81 14 -125 23 -44
9 -90 16 -102 16 l-23 0 -2 -217 -3 -218 -351 -3 -352 -2 -6 22 c-3 13 -6 123
-6 246 0 215 -1 222 -20 222 -20 0 -20 -7 -20 -739 l0 -740 -55 -63 c-350
-403 -952 -596 -1569 -503 -363 55 -727 204 -999 409 -109 82 -211 173 -182
162 325 -127 712 -186 1025 -157 643 59 1186 387 1486 897 52 88 114 221 114
243 0 8 -98 11 -305 11 l-305 0 0 165 c0 92 -4 165 -9 165 -5 0 -7 -9 -4 -20
5 -17 0 -20 -26 -20 -36 0 -37 -2 -14 -37 17 -25 16 -25 -2 -14 -11 6 -41 20
-67 31 l-48 19 0 -21 c0 -16 -5 -19 -25 -16 l-24 5 25 -43 c14 -24 24 -44 21
-44 -2 0 -21 7 -42 15 -44 19 -65 8 -57 -30 6 -31 -13 -33 -45 -4 -20 20 -23
20 -29 5 -4 -11 -13 -15 -25 -11 -12 4 -19 2 -19 -7 0 -9 -12 -14 -34 -14 -27
0 -38 7 -57 35 l-24 35 -6 -55 -5 -54 -14 33 c-17 38 -33 41 -55 10 -13 -20
-17 -21 -25 -8 -5 8 -10 20 -10 27 0 10 -29 33 -43 33 -2 0 -12 -18 -23 -40
-23 -47 -40 -51 -49 -10 -8 36 -9 36 -43 9 l-27 -21 -5 39 c-10 67 -32 80 -72
43 -21 -20 -21 -20 -35 0 -8 11 -23 20 -33 20 -12 0 -21 10 -25 30 -7 32 -17
33 -84 8 -25 -9 -43 -2 -25 10 6 4 14 17 18 30 7 20 4 22 -36 24 -24 1 -52 1
-63 0 -11 0 -33 5 -50 11 -33 13 -67 12 -138 -4 -26 -6 -50 -9 -53 -6 -3 3 16
20 42 38 45 31 47 33 26 42 -12 6 -25 21 -28 34 -4 13 -11 22 -18 21 -6 -1
-20 3 -32 9 -21 12 -149 31 -239 35 -37 2 -50 7 -50 18 0 17 -56 28 -152 29
l-63 1 0 -105 c0 -311 136 -631 365 -860 258 -258 566 -372 983 -363 94 2 172
3 172 2 0 -7 -156 -73 -250 -105 -236 -82 -488 -115 -790 -106 -277 9 -473 54
-686 157 -431 209 -686 642 -710 1210 -7 177 -13 230 -27 229 -7 -1 -43 -5
-82 -10z m4490 -736 c0 -46 -2 -371 -3 -723 l-2 -640 -350 0 -350 0 0 725 0
725 353 -2 352 -3 0 -82z"/>
</g>
</svg>
